<?xml version="1.0" encoding="utf-8"?>
<!-- Generator: Adobe Illustrator 18.1.1, SVG Export Plug-In . SVG Version: 6.00 Build 0)  -->

<svg version="1.1" id="Layer_1" xmlns="http://www.w3.org/2000/svg" xmlns:xlink="http://www.w3.org/1999/xlink" x="0px" y="0px"
	 viewBox="0 0 800 800" enable-background="new 0 0 800 800" xml:space="preserve">
<g>
	
	<path fill="#FE0133" d="M432.9,799.6c-3.1,1.2-4.3-1.2-5-5.4c-2.7-13.9-14.7-23.2-29-22.8c-13.5,0.4-25.1,10.8-26.7,24.8
		c-0.4,2.7-1.2,3.1-3.9,3.1c-13.9-0.4-27.5-2.7-41.4-5c-2.3-0.4-2.3-1.5-2.3-3.5c1.9-15.1-6.6-28.2-20.5-32.1
		c-14.3-3.9-28.2,3.1-34,17.4c-1.2,2.7-2.3,2.7-4.3,1.9c-12.8-4.6-25.5-10.1-37.9-15.9c-2.3-1.2-2.7-1.9-1.5-4.3
		c5.8-13.9,1.2-29-11.6-36.4c-12.8-7.4-27.9-4.3-37.1,7.7c-1.9,2.3-3.1,1.9-5,0.8c-11.2-7.7-22.1-16.2-32.5-24.8
		c-1.9-1.5-2.3-2.7-0.4-4.6c9.3-12,8.5-27.5-1.9-37.9c-10.1-10.4-25.9-11.2-37.9-1.9c-1.9,1.5-3.1,1.5-4.6-0.4
		c-8.9-10.4-17.4-21.3-25.1-32.9c-1.5-2.3-1.2-3.1,0.8-4.6c10.1-7.7,13.9-19.7,10.4-31.3s-13.9-19.7-26.7-20.1
		c-4.3,0-8.5,0.8-12,2.7c-1.9,1.2-3.1,1.2-4.3-1.2c-6.2-12.8-11.2-25.5-16.2-39.1c-1.2-3.1,1.2-3.1,2.7-3.9
		c12-5,18.2-15.9,17.4-29.4c-0.8-11.2-9.3-21.3-20.9-24.4c-3.9-1.2-8.1-1.2-12-0.4c-2.3,0.4-3.1-0.4-3.5-2.7
		c-2.3-13.5-3.9-26.7-5.4-40.6c-0.4-2.7,0-3.9,3.1-4.3c14.7-1.9,25.1-13.5,25.5-27.9c0-13.9-10.4-26.3-24.8-28.2
		c-3.5-0.4-3.9-1.5-3.5-4.6c1.2-13.5,3.1-27.1,5.4-40.2c0.4-2.3,1.2-2.7,3.5-2.3c15.1,2.3,28.2-6.2,32.1-20.1
		c3.9-14.3-2.7-28.2-17-34.4c-2.3-1.2-2.7-1.9-1.9-4.3c4.6-13.2,10.1-25.9,15.9-38.3c0.8-1.9,1.5-2.3,3.9-1.5
		c14.3,6.2,29,1.5,36.4-11.6c7.4-12.8,4.3-27.9-8.1-37.5c-1.5-1.2-1.9-1.9-0.8-3.9c8.1-11.6,16.6-22.8,25.5-33.7
		c1.5-1.9,2.3-1.5,4.3-0.4c12,9.3,27.5,8.5,37.9-1.9c10.4-10.4,11.2-25.9,1.9-37.9c-1.9-2.3-1.2-3.5,0.8-5
		c10.4-8.9,21.3-17,32.5-24.8c2.3-1.5,3.1-1.2,5,1.2c9.3,12,24.8,15.1,37.1,7.7c12.8-7.4,17.4-22.4,11.2-36.4
		c-1.2-2.3-0.8-3.1,1.5-4.3c12.4-5.8,25.5-11.2,38.3-15.9c3.9-1.5,3.9,1.2,4.6,3.1c5,10.8,15.9,17.8,27.5,17
		c12.8-0.8,22.4-8.5,25.9-20.1c1.2-4.3,1.9-8.5,0.8-12.8c-0.8-2.3,0-3.1,2.7-3.5c13.5-2.3,27.1-3.9,40.6-5.4
		c3.1-0.4,3.9,0.4,4.3,3.5c1.5,14.3,14.3,25.1,28.2,25.1c13.9,0,26.3-10.8,27.9-24.8c0.4-3.5,1.2-3.9,4.6-3.9
		c13.5,1.2,27.1,3.1,40.2,5.4c2.3,0.4,3.1,1.2,2.3,3.5c-3.1,12.8,5.8,28.6,20.5,32.5c14.3,3.9,27.5-3.1,34-17.8
		c0.8-2.3,1.9-2.3,3.9-1.5c13.2,4.6,26.3,10.1,39.1,16.2c1.9,0.8,2.3,1.5,1.2,3.9c-6.2,14.3-1.2,29,11.6,36.4
		c12.8,7.4,27.9,4.3,37.5-8.1c1.5-2.3,2.3-1.9,4.3-0.4c11.2,7.7,22.1,16.2,32.5,24.8c1.9,1.5,2.7,2.7,0.8,5.4
		c-9.3,11.6-8.1,27.5,1.9,37.5c10.4,10.4,25.9,11.6,37.9,2.3c2.3-1.9,3.1-1.5,5,0.4c8.9,10.4,17.4,21.3,25.1,32.9
		c1.5,1.9,1.2,2.7-0.8,4.3c-12.4,9.3-15.5,24.4-8.1,37.1c7.4,12.8,22.1,17.8,36.4,12c2.7-1.2,3.1-0.4,4.3,1.9
		c5.8,12,10.8,24.4,15.5,36.8c1.2,3.1,0.8,4.6-2.7,5.8c-12.4,5-19.3,18.6-16.6,31.7c2.7,13.2,14.7,22.8,28.2,22.8
		c2.3,0,5.4-2.3,7.4,0c1.2,1.9,1.2,4.6,1.5,7.4c1.9,11.6,3.5,23.2,4.6,34.8c0.4,2.7,0,3.9-3.1,4.3c-14.7,1.9-25.1,13.9-25.1,28.2
		c0,14.3,10.4,26.3,25.5,28.2c3.1,0.4,3.1,1.9,3.1,4.3c-1.2,13.2-2.7,26.3-5,39.5c-0.8,3.5-1.9,3.9-4.6,3.5
		c-13.9-1.5-26.7,6.6-30.6,19.3c-4.6,13.9,2.3,29,15.9,34.8c3.1,1.2,3.9,2.3,2.7,5.8c-4.6,12.4-9.7,24.4-15.1,36.4
		c-1.2,2.7-2.3,3.5-5.4,2.3c-13.2-5.8-28.2-0.4-35.6,11.6c-7.4,12.8-4.6,28.2,7.4,37.1c2.7,1.9,2.3,3.1,0.8,5.4
		c-7.7,11.2-16.2,22.1-24.8,32.5c-1.5,1.9-2.7,1.9-4.6,0.4c-11.6-9.3-27.9-8.5-37.9,1.9c-10.4,10.4-11.2,26.3-1.9,37.9
		c1.5,2.3,1.5,3.1-0.4,4.6c-10.4,8.9-21.7,17-32.9,25.1c-2.3,1.5-3.1,1.2-4.6-0.8c-9.3-12-24.4-15.1-37.1-7.7
		c-12.8,7.4-17.8,22.4-11.6,36c1.2,3.1,0.4,3.5-1.9,4.6c-12,5.8-24.8,10.8-37.1,15.5c-3.1,1.2-3.9,0.4-5-2.3
		c-5-12.4-18.6-19.7-30.9-17.4c-14.3,2.7-24,14.7-24,28.6c0,2.3,2.3,5.4,0.4,7c-1.5,1.5-4.6,1.2-7,1.5c-7.4,1.2-14.3,2.3-21.7,3.1
		C442.6,798.8,438.3,799.2,432.9,799.6z"/>
</g>
</svg>